<?xml version="1.0" encoding="UTF-8"?>
<svg width="1024px" height="1024px" viewBox="0 0 1024 1024" version="1.1" xmlns="http://www.w3.org/2000/svg" xmlns:xlink="http://www.w3.org/1999/xlink">
    <!-- Generator: Sketch 64 (93537) - https://sketch.com -->
    <title>BuildSettingExtractorIcon</title>
    <desc>Created with Sketch.</desc>
    <defs>
        <rect id="path-1" x="0" y="0" width="512" height="1024"></rect>
        <rect id="path-3" x="0" y="0" width="512" height="1024"></rect>
    </defs>
    <g id="BuildSettingExtractorIcon" stroke="none" stroke-width="1" fill="none" fill-rule="evenodd">
        <g id="Target">
            <mask id="mask-2" fill="white">
                <use xlink:href="#path-1"></use>
            </mask>
            <g id="Mask"></g>
            <g id="Group" mask="url(#mask-2)">
                <circle id="Oval-1" fill="#E42816" cx="512" cy="512" r="512"></circle>
                <circle id="Oval-1-Copy" fill="#FFFFFF" cx="512" cy="512" r="399.861671"></circle>
                <path d="M512,806 C674.371716,806 806,674.371716 806,512 C806,349.628284 674.371716,218 512,218 C349.628284,218 218,349.628284 218,512 C218,674.371716 349.628284,806 512,806 Z" id="Oval-1-Copy-2" fill="#E42816"></path>
                <path d="M512,698.5 C615.001106,698.5 698.5,615.001106 698.5,512 C698.5,408.998894 615.001106,325.5 512,325.5 C408.998894,325.5 325.5,408.998894 325.5,512 C325.5,615.001106 408.998894,698.5 512,698.5 Z" id="Oval-1-Copy-3" fill="#FFFFFF"></path>
                <circle id="Oval-1-Copy-4" fill="#E42816" cx="512" cy="512" r="97.3850021"></circle>
            </g>
        </g>
        <g id="Gear" transform="translate(512.000000, 0.000000)">
            <mask id="mask-4" fill="white">
                <use xlink:href="#path-3"></use>
            </mask>
            <g id="Mask"></g>
            <g id="Group-Copy" mask="url(#mask-4)">
                <g transform="translate(-510.000000, 0.000000)">
                    <circle id="Oval-6-Copy" stroke="#62708D" stroke-width="6" fill="#A6AEBC" fill-rule="evenodd" cx="512" cy="512" r="372"></circle>
                    <path d="M597.105352,756.15942 L427.580568,756.15942 L465.042336,1021 L559.643585,1021 L597.105352,756.15942 Z M753.799927,428.585434 L753.799927,598.110218 L1018.64051,560.64845 L1018.64051,466.047202 L753.799927,428.585434 Z M268.200073,428.585434 L3.35949354,466.047202 L3.35949354,560.64845 L268.200073,598.110218 L268.200073,428.585434 Z M559.643585,3 L465.042336,3 L427.580568,267.84058 L597.105352,267.84058 L559.643585,3 Z" id="Rectangle-2-Copy-12" stroke="#62708D" stroke-width="6" fill="#A6AEBC" fill-rule="evenodd"></path>
                    <path d="M258.347883,561.84059 L47.7201132,726.703709 L95.0207362,808.630791 L298.613387,726.584869 L216.70776,929.83053 L298.634847,977.131156 L463.497978,766.50337 L333.014504,691.16875 L258.347883,561.84059 Z M763.652086,559.506062 L687.636812,691.166756 L559.485131,765.155538 L724.348269,975.78333 L806.275349,928.482708 L724.08492,724.531863 L926.979263,806.296289 L974.279887,724.369206 L763.652086,559.506062 Z M724.348269,48.2166704 L559.485141,258.84445 L687.636811,332.832444 L763.652093,464.493932 L974.279887,299.630794 L926.979259,217.703703 L724.08492,299.467315 L806.275346,95.5172906 L724.348269,48.2166704 Z M298.634847,46.8688443 L216.707763,94.1694679 L298.613387,297.414309 L95.0207407,215.369201 L47.7201132,297.296291 L258.347891,462.159417 L333.01551,332.83045 L463.497976,257.496626 L298.634847,46.8688443 Z" id="Rectangle-2-Copy-12" stroke="#62708D" stroke-width="6" fill="#A6AEBC" fill-rule="evenodd"></path>
                    <circle id="Outer-Disc" stroke="none" fill="#A6AEBC" fill-rule="evenodd" cx="511" cy="512" r="369"></circle>
                    <circle id="Inner-RIng" stroke="#62708D" stroke-width="6" fill="none" cx="511" cy="512" r="291"></circle>
                    <path d="M506.138989,696.956522 C609.140095,696.956522 692.638989,613.457628 692.638989,510.456522 C692.638989,407.455416 609.140095,323.956522 506.138989,323.956522 C403.137883,323.956522 319.638989,407.455416 319.638989,510.456522 C319.638989,613.457628 403.137883,696.956522 506.138989,696.956522 Z" id="Inner-Hole" stroke="#979797" stroke-width="1" fill="#FFFFFF" fill-rule="evenodd"></path>
                </g>
            </g>
        </g>
        <path d="M714.962347,349.114998 L917.924694,512 L714.962347,674.885002 L714.962347,609.385002 L512,609.385002 L512,414.614998 L714.962347,414.614998 L714.962347,349.114998 Z" id="Straight-Best" fill="#E42816"></path>
    </g>
</svg>